<mxfile host="65bd71144e">
    <diagram id="m9e5_AxYk2Y15cNEP2ss" name="第 1 页">
        <mxGraphModel dx="855" dy="536" grid="1" gridSize="10" guides="1" tooltips="1" connect="1" arrows="1" fold="1" page="1" pageScale="1" pageWidth="827" pageHeight="1169" background="#ffffff" math="0" shadow="0">
            <root>
                <mxCell id="0"/>
                <mxCell id="1" parent="0"/>
                <mxCell id="25" value="" style="endArrow=classic;html=1;fontColor=#000000;strokeColor=#000000;startArrow=none;" parent="1" edge="1">
                    <mxGeometry width="50" height="50" relative="1" as="geometry">
                        <mxPoint x="480" y="139.5" as="sourcePoint"/>
                        <mxPoint x="560" y="140" as="targetPoint"/>
                    </mxGeometry>
                </mxCell>
                <mxCell id="2" value="预解析线程" style="rounded=0;whiteSpace=wrap;html=1;fillColor=#FFCCE6;fontColor=#000000;strokeColor=#FF99CC;" parent="1" vertex="1">
                    <mxGeometry x="80" y="210" width="110" height="60" as="geometry"/>
                </mxCell>
                <mxCell id="10" value="渲染主线程" style="rounded=0;whiteSpace=wrap;html=1;fontColor=#000000;fillColor=#99CCFF;strokeColor=#9999FF;" parent="1" vertex="1">
                    <mxGeometry x="80" y="110" width="110" height="60" as="geometry"/>
                </mxCell>
                <mxCell id="20" value="网络线程" style="rounded=0;whiteSpace=wrap;html=1;fillColor=#FFCC99;fontColor=#000000;strokeColor=#FFB366;" parent="1" vertex="1">
                    <mxGeometry x="80" y="340" width="110" height="60" as="geometry"/>
                </mxCell>
                <mxCell id="22" value="" style="endArrow=classic;html=1;fontColor=#000000;strokeColor=#000000;startArrow=none;" parent="1" source="29" edge="1">
                    <mxGeometry width="50" height="50" relative="1" as="geometry">
                        <mxPoint x="349" y="239.5" as="sourcePoint"/>
                        <mxPoint x="560" y="240" as="targetPoint"/>
                    </mxGeometry>
                </mxCell>
                <mxCell id="26" value="CSSOM" style="text;html=1;strokeColor=none;fillColor=none;align=center;verticalAlign=middle;whiteSpace=wrap;rounded=0;fontColor=#000000;" parent="1" vertex="1">
                    <mxGeometry x="344" y="50" width="60" height="30" as="geometry"/>
                </mxCell>
                <mxCell id="28" value="DOM" style="text;html=1;strokeColor=none;fillColor=none;align=center;verticalAlign=middle;whiteSpace=wrap;rounded=0;fontColor=#000000;" parent="1" vertex="1">
                    <mxGeometry x="470" y="50" width="60" height="30" as="geometry"/>
                </mxCell>
                <mxCell id="30" value="" style="endArrow=classic;html=1;fontColor=#000000;strokeColor=#000000;endFill=1;" parent="1" source="20" edge="1">
                    <mxGeometry width="50" height="50" relative="1" as="geometry">
                        <mxPoint x="190" y="370" as="sourcePoint"/>
                        <mxPoint x="560" y="370" as="targetPoint"/>
                    </mxGeometry>
                </mxCell>
                <mxCell id="35" style="edgeStyle=orthogonalEdgeStyle;curved=1;html=1;entryX=0;entryY=0.75;entryDx=0;entryDy=0;dashed=1;strokeColor=#000000;fontColor=#000000;" parent="1" source="21" target="29" edge="1">
                    <mxGeometry relative="1" as="geometry"/>
                </mxCell>
                <mxCell id="21" value="下载CSS" style="rounded=0;whiteSpace=wrap;html=1;fontColor=#000000;fillColor=#FFCC99;strokeColor=#FFB366;" parent="1" vertex="1">
                    <mxGeometry x="233.5" y="350" width="90" height="40" as="geometry"/>
                </mxCell>
                <mxCell id="31" value="" style="endArrow=none;html=1;fontColor=#000000;strokeColor=#000000;" parent="1" source="2" target="3" edge="1">
                    <mxGeometry width="50" height="50" relative="1" as="geometry">
                        <mxPoint x="190" y="239.9225352112676" as="sourcePoint"/>
                        <mxPoint x="490" y="239.5" as="targetPoint"/>
                    </mxGeometry>
                </mxCell>
                <mxCell id="32" style="edgeStyle=orthogonalEdgeStyle;html=1;entryX=0.5;entryY=0;entryDx=0;entryDy=0;fontColor=#000000;curved=1;strokeColor=#000000;dashed=1;exitX=1;exitY=0.75;exitDx=0;exitDy=0;" parent="1" source="3" target="21" edge="1">
                    <mxGeometry relative="1" as="geometry"/>
                </mxCell>
                <mxCell id="3" value="快速浏览" style="rounded=0;whiteSpace=wrap;html=1;fontColor=#000000;fillColor=#FFCCE6;strokeColor=#FF99CC;" parent="1" vertex="1">
                    <mxGeometry x="200" y="220" width="70" height="40" as="geometry"/>
                </mxCell>
                <mxCell id="34" value="" style="endArrow=none;html=1;fontColor=#000000;strokeColor=#000000;startArrow=none;" parent="1" source="3" target="29" edge="1">
                    <mxGeometry width="50" height="50" relative="1" as="geometry">
                        <mxPoint x="270" y="239.93137254901956" as="sourcePoint"/>
                        <mxPoint x="490" y="239.5" as="targetPoint"/>
                    </mxGeometry>
                </mxCell>
                <mxCell id="41" style="edgeStyle=orthogonalEdgeStyle;curved=1;html=1;entryX=0.5;entryY=1;entryDx=0;entryDy=0;dashed=1;strokeColor=#000000;fontColor=#000000;" parent="1" source="29" target="39" edge="1">
                    <mxGeometry relative="1" as="geometry"/>
                </mxCell>
                <mxCell id="29" value="解析" style="rounded=0;whiteSpace=wrap;html=1;fontColor=#000000;fillColor=#FFCCE6;strokeColor=#FF99CC;" parent="1" vertex="1">
                    <mxGeometry x="362" y="220" width="36" height="40" as="geometry"/>
                </mxCell>
                <mxCell id="36" value="" style="endArrow=none;html=1;fontColor=#000000;strokeColor=#000000;" parent="1" target="16" edge="1">
                    <mxGeometry width="50" height="50" relative="1" as="geometry">
                        <mxPoint x="190" y="139.9225352112676" as="sourcePoint"/>
                        <mxPoint x="530" y="140" as="targetPoint"/>
                    </mxGeometry>
                </mxCell>
                <mxCell id="16" value="解析HTML" style="rounded=0;whiteSpace=wrap;html=1;fontColor=#000000;fillColor=#99CCFF;strokeColor=#9999FF;" parent="1" vertex="1">
                    <mxGeometry x="280" y="120" width="90" height="40" as="geometry"/>
                </mxCell>
                <mxCell id="37" value="" style="endArrow=none;html=1;fontColor=#000000;strokeColor=#000000;startArrow=none;" parent="1" source="16" target="23" edge="1">
                    <mxGeometry width="50" height="50" relative="1" as="geometry">
                        <mxPoint x="400" y="140" as="sourcePoint"/>
                        <mxPoint x="640" y="140" as="targetPoint"/>
                    </mxGeometry>
                </mxCell>
                <mxCell id="43" style="edgeStyle=orthogonalEdgeStyle;curved=1;html=1;entryX=0.5;entryY=1;entryDx=0;entryDy=0;dashed=1;strokeColor=#000000;fontColor=#000000;exitX=1;exitY=0.25;exitDx=0;exitDy=0;" parent="1" source="23" target="28" edge="1">
                    <mxGeometry relative="1" as="geometry"/>
                </mxCell>
                <mxCell id="23" value="解析HTML" style="rounded=0;whiteSpace=wrap;html=1;fontColor=#000000;fillColor=#99CCFF;strokeColor=#9999FF;" parent="1" vertex="1">
                    <mxGeometry x="390" y="120" width="90" height="40" as="geometry"/>
                </mxCell>
                <mxCell id="42" style="edgeStyle=orthogonalEdgeStyle;curved=1;html=1;dashed=1;strokeColor=#000000;fontColor=#000000;" parent="1" source="39" target="26" edge="1">
                    <mxGeometry relative="1" as="geometry"/>
                </mxCell>
                <mxCell id="39" value="" style="rounded=0;whiteSpace=wrap;html=1;fontColor=#000000;fillColor=#99CCFF;strokeColor=#9999FF;" parent="1" vertex="1">
                    <mxGeometry x="370" y="120" width="20" height="40" as="geometry"/>
                </mxCell>
                <mxCell id="58" value="" style="endArrow=none;html=1;fontColor=#000000;strokeColor=#000000;startArrow=none;" parent="1" edge="1">
                    <mxGeometry width="50" height="50" relative="1" as="geometry">
                        <mxPoint x="658" y="140" as="sourcePoint"/>
                        <mxPoint x="658" y="140" as="targetPoint"/>
                    </mxGeometry>
                </mxCell>
            </root>
        </mxGraphModel>
    </diagram>
</mxfile>